<svg width="240" height="35" viewBox="0 0 240 35" fill="none" xmlns="http://www.w3.org/2000/svg">
<path d="M219.397 33.1323C213.228 33.1323 208.211 31.6174 204.748 28.8409C201.298 26.0755 199.339 22.0204 199.339 16.8162C199.339 11.612 201.298 7.55681 204.748 4.79142C208.211 2.01491 213.228 0.5 219.397 0.5C225.566 0.5 230.594 2.01492 234.069 4.7919C237.531 7.55773 239.5 11.6129 239.5 16.8162C239.5 22.0194 237.531 26.0746 234.069 28.8404C230.594 31.6174 225.566 33.1323 219.397 33.1323ZM219.397 26.6485C222.943 26.6485 225.875 25.7856 227.93 24.1006C229.999 22.4047 231.123 19.9219 231.123 16.8162C231.123 13.7105 229.999 11.2276 227.93 9.53171C225.875 7.84679 222.943 6.98387 219.397 6.98387C215.873 6.98387 212.941 7.8471 210.881 9.53126C208.807 11.2264 207.671 13.7088 207.671 16.8162C207.671 19.9219 208.795 22.4047 210.864 24.1006C212.919 25.7856 215.851 26.6485 219.397 26.6485Z" fill="black" stroke="#F5F5F5"/>
<path d="M177.604 26.6484H165.075V32.9971H199.421V26.6484H186.801H186.301V26.1484V2.43857H178.104V26.1484V26.6484H177.604Z" fill="black" stroke="#F5F5F5"/>
<path d="M144.558 33.1323C138.389 33.1323 133.373 31.6174 129.909 28.8409C126.459 26.0755 124.5 22.0204 124.5 16.8162C124.5 11.612 126.459 7.55681 129.909 4.79142C133.373 2.01491 138.389 0.5 144.558 0.5C150.727 0.5 155.755 2.01492 159.231 4.7919C162.692 7.55773 164.661 11.6129 164.661 16.8162C164.661 22.0194 162.692 26.0746 159.231 28.8404C155.755 31.6174 150.727 33.1323 144.558 33.1323ZM144.558 26.6485C148.104 26.6485 151.036 25.7856 153.092 24.1006C155.16 22.4047 156.284 19.9219 156.284 16.8162C156.284 13.7105 155.16 11.2276 153.092 9.53171C151.036 7.84679 148.104 6.98387 144.558 6.98387C141.034 6.98387 138.103 7.8471 136.042 9.53126C133.968 11.2264 132.832 13.7088 132.832 16.8162C132.832 19.9219 133.956 22.4047 136.025 24.1006C138.08 25.7856 141.012 26.6485 144.558 26.6485Z" fill="black" stroke="#F5F5F5"/>
<circle cx="140" cy="21" r="3" fill="#FF3A3A"/>
<circle cx="226" cy="14" r="3" fill="#FF3A3A"/>
<path d="M91.2078 7.65H77.2578V0.5H115.458V7.65H101.408H100.908V8.15V34.5H91.7078V8.15V7.65H91.2078Z" fill="black" stroke="#F5F5F5"/>
<path d="M63.2484 0.5L80.8313 34.5H71.1138L67.9513 28.0791L67.8138 27.8H67.5027H48.3027H47.9916L47.8542 28.0791L44.6916 34.5H35.1242L52.7071 0.5H63.2484ZM51.3541 20.8293L50.9995 21.55H51.8027H63.9527H64.753L64.4021 20.8308L58.3521 8.43075L57.9046 7.51353L57.4541 8.42929L51.3541 20.8293Z" fill="black" stroke="#F5F5F5"/>
<path d="M14.45 7.65H0.5V0.5H38.7V7.65H24.65H24.15V8.15V34.5H14.95V8.15V7.65H14.45Z" fill="black" stroke="#F5F5F5"/>
</svg>
