<svg width="242" height="37" viewBox="0 0 242 37" fill="none" xmlns="http://www.w3.org/2000/svg">
<path d="M48 23.5L59 5L71 25.5L48 23.5Z" fill="#F5F5F5"/>
<ellipse cx="146" cy="18.5" rx="15" ry="11.5" fill="#F5F5F5"/>
<ellipse cx="220" cy="18.5" rx="15" ry="11.5" fill="#F5F5F5"/>
<path d="M220.397 34.6323C207.909 34.6323 199.839 28.501 199.839 17.8162C199.839 7.13137 207.909 1 220.397 1C232.885 1 241 7.13137 241 17.8162C241 28.501 232.885 34.6323 220.397 34.6323ZM220.397 27.1485C227.34 27.1485 231.623 23.7672 231.623 17.8162C231.623 11.8651 227.34 8.48387 220.397 8.48387C213.499 8.48387 209.171 11.8651 209.171 17.8162C209.171 23.7672 213.454 27.1485 220.397 27.1485Z" fill="black" stroke="#F5F5F5" stroke-width="2"/>
<path d="M200.921 34.4971V27.1484H187.801V2.93857H178.604V27.1484H165.575V34.4971H200.921Z" fill="black" stroke="#F5F5F5" stroke-width="2"/>
<path d="M145.558 34.6323C133.07 34.6323 125 28.501 125 17.8162C125 7.13137 133.07 1 145.558 1C158.046 1 166.161 7.13137 166.161 17.8162C166.161 28.501 158.046 34.6323 145.558 34.6323ZM145.558 27.1485C152.501 27.1485 156.784 23.7672 156.784 17.8162C156.784 11.8651 152.501 8.48387 145.558 8.48387C138.66 8.48387 134.332 11.8651 134.332 17.8162C134.332 23.7672 138.615 27.1485 145.558 27.1485Z" fill="black" stroke="#F5F5F5" stroke-width="2"/>
<circle cx="140.5" cy="21.5" r="3.5" fill="#FF3A3A"/>
<circle cx="225.5" cy="14.5" r="3.5" fill="#FF3A3A"/>
<path d="M116.958 1V9.15H102.408V36H92.2078V9.15H77.7578V1H116.958Z" fill="black" stroke="#F5F5F5" stroke-width="2"/>
<path d="M71.8027 36L68.5027 29.3H49.3027L46.0027 36H35.3027L53.4027 1H64.5527L82.6527 36H71.8027ZM52.8027 22.05H64.9527L58.9027 9.65L52.8027 22.05Z" fill="black" stroke="#F5F5F5" stroke-width="2"/>
<path d="M40.2 1V9.15H25.65V36H15.45V9.15H1V1H40.2Z" fill="black" stroke="#F5F5F5" stroke-width="2"/>
</svg>
