<svg width="116" height="79" viewBox="0 0 116 79" fill="none" xmlns="http://www.w3.org/2000/svg">
<path d="M95.397 78.1323C89.2281 78.1323 84.2114 76.6174 80.7476 73.8409C77.2976 71.0755 75.3389 67.0204 75.3389 61.8162C75.3389 56.612 77.2976 52.5568 80.7476 49.7914C84.2114 47.0149 89.2281 45.5 95.397 45.5C101.566 45.5 106.594 47.0149 110.069 49.7919C113.531 52.5577 115.5 56.6129 115.5 61.8162C115.5 67.0194 113.531 71.0746 110.069 73.8404C106.594 76.6174 101.566 78.1323 95.397 78.1323ZM95.397 71.6485C98.9428 71.6485 101.875 70.7856 103.93 69.1006C105.999 67.4047 107.123 64.9219 107.123 61.8162C107.123 58.7105 105.999 56.2276 103.93 54.5317C101.875 52.8468 98.9428 51.9839 95.397 51.9839C91.873 51.9839 88.9414 52.8471 86.881 54.5313C84.8072 56.2264 83.6712 58.7088 83.6712 61.8162C83.6712 64.9219 84.7947 67.4047 86.8635 69.1006C88.9189 70.7856 91.8512 71.6485 95.397 71.6485Z" fill="black" stroke="#F5F5F5"/>
<path d="M53.6043 71.6484H41.0752V77.9971H75.4207V71.6484H62.8014H62.3014V71.1484V47.4386H54.1043V71.1484V71.6484H53.6043Z" fill="black" stroke="#F5F5F5"/>
<path d="M20.5581 78.1323C14.3893 78.1323 9.37254 76.6174 5.90872 73.8409C2.45877 71.0755 0.5 67.0204 0.5 61.8162C0.5 56.612 2.45877 52.5568 5.90872 49.7914C9.37254 47.0149 14.3893 45.5 20.5581 45.5C26.727 45.5 31.7553 47.0149 35.2306 49.7919C38.692 52.5577 40.6613 56.6129 40.6613 61.8162C40.6613 67.0194 38.692 71.0746 35.2306 73.8404C31.7553 76.6174 26.727 78.1323 20.5581 78.1323ZM20.5581 71.6485C24.1039 71.6485 27.0362 70.7856 29.0916 69.1006C31.1604 67.4047 32.2839 64.9219 32.2839 61.8162C32.2839 58.7105 31.1604 56.2276 29.0916 54.5317C27.0362 52.8468 24.1039 51.9839 20.5581 51.9839C17.0342 51.9839 14.1025 52.8471 12.0421 54.5313C9.96831 56.2264 8.8323 58.7088 8.8323 61.8162C8.8323 64.9219 9.95584 67.4047 12.0246 69.1006C14.08 70.7856 17.0123 71.6485 20.5581 71.6485Z" fill="black" stroke="#F5F5F5"/>
<circle cx="17.4925" cy="68.1277" r="2.25418" fill="black"/>
<circle cx="102.809" cy="58.2095" r="2.25418" fill="black"/>
<path d="M91.2078 7.65H77.2578V0.5H115.458V7.65H101.408H100.908V8.15V34.5H91.7078V8.15V7.65H91.2078Z" fill="black" stroke="#F5F5F5"/>
<path d="M63.2484 0.5L80.8313 34.5H71.1138L67.9513 28.0791L67.8138 27.8H67.5027H48.3027H47.9916L47.8542 28.0791L44.6916 34.5H35.1242L52.7071 0.5H63.2484ZM51.3541 20.8293L50.9995 21.55H51.8027H63.9527H64.753L64.4021 20.8308L58.3521 8.43075L57.9046 7.51353L57.4541 8.42929L51.3541 20.8293Z" fill="black" stroke="#F5F5F5"/>
<path d="M14.45 7.65H0.5V0.5H38.7V7.65H24.65H24.15V8.15V34.5H14.95V8.15V7.65H14.45Z" fill="black" stroke="#F5F5F5"/>
</svg>
